<svg width="31" height="30" viewBox="0 0 31 30" fill="none" xmlns="http://www.w3.org/2000/svg">
<ellipse cx="15.5" cy="15" rx="15.5" ry="15" fill="#8E2424"/>
<path fill-rule="evenodd" clip-rule="evenodd" d="M14.5243 1.51878C12.8164 1.68524 11.4364 2.02947 10.0923 2.62437C9.10359 3.06188 7.91875 3.74922 7.63794 4.04812C7.35856 4.34549 7.54213 4.83176 7.95821 4.89671C8.11687 4.92145 8.21406 4.87729 8.72043 4.55032C9.40043 4.11117 10.4553 3.58196 11.2003 3.30607C11.7326 3.10894 13.0449 2.75454 13.2425 2.75454C13.3473 2.75454 13.3475 2.75728 13.2527 2.89963C12.3981 4.18219 11.7979 5.76883 11.3092 8.03694L11.2226 8.43879L10.8696 8.5259C10.0975 8.71637 9.51245 9.26848 9.25539 10.049C9.227 10.1353 9.05505 10.1413 6.63793 10.1413C5.21507 10.1413 4.05091 10.1262 4.05091 10.1076C4.05091 10.0132 4.66196 8.84068 4.92693 8.42655C5.30519 7.8355 5.33104 7.63035 5.05789 7.38633C4.90657 7.25109 4.84958 7.23157 4.67452 7.25505C4.40321 7.29146 4.36248 7.33082 4.0164 7.89026C1.2319 12.3917 1.33906 18.1322 4.28966 22.5305L4.51412 22.8651L4.35894 23.1659C4.14478 23.5811 4.06537 24.0778 4.14177 24.5238C4.39672 26.0121 5.9986 26.8238 7.32791 26.1382L7.62649 25.9842L8.09434 26.2874C10.2392 27.6774 12.4967 28.3912 15.0474 28.4861C19.7553 28.6612 24.1958 26.3487 26.8259 22.3522C28.3189 20.0836 29.0932 17.2903 28.991 14.5425C28.8962 11.9917 28.1823 9.73422 26.7923 7.58941L26.4891 7.12156L26.6431 6.82298C26.8562 6.40984 26.9354 5.91255 26.8591 5.46723C26.604 3.97768 25.0023 3.1673 23.6708 3.85401L23.37 4.00918L23.0354 3.78473C21.3563 2.6583 19.4693 1.93391 17.3999 1.62124C16.8744 1.54183 14.9802 1.47435 14.5243 1.51878ZM15.9623 2.67354C17.12 3.21252 18.2774 5.82956 18.8217 9.13885C18.8813 9.50159 18.9431 9.87578 18.959 9.97034L18.9878 10.1423L16.2627 10.1286L13.5376 10.115L13.4412 9.86101C13.2617 9.38789 12.9285 9.03137 12.2873 8.62641C12.2562 8.60684 12.4224 7.84046 12.6339 7.02833C13.3295 4.35568 14.4874 2.54454 15.5005 2.54454C15.602 2.54454 15.8099 2.60258 15.9623 2.67354ZM18.5691 2.93261C18.9562 3.03054 19.5104 3.19859 19.8006 3.30607C21.004 3.7517 22.7245 4.71742 22.651 4.90599C22.5231 5.23407 22.4549 5.66219 22.4809 5.97312C22.6094 7.50905 24.1192 8.41837 25.5894 7.84526C25.6602 7.81761 25.7456 7.91095 25.9842 8.27659C26.2724 8.71817 26.95 9.9935 26.95 10.0944C26.95 10.1213 25.4813 10.1413 23.5042 10.1413H20.0583L19.914 9.25756C19.4938 6.68363 18.7967 4.53555 17.9577 3.2294C17.8365 3.04077 17.7194 2.85679 17.6975 2.82049C17.6347 2.71681 17.8003 2.73813 18.5691 2.93261ZM25.2152 4.80142C26.0757 5.25096 26.0255 6.46767 25.1297 6.87685C24.3619 7.22756 23.4504 6.56206 23.5322 5.71052C23.5878 5.1315 24.1071 4.654 24.6812 4.654C24.8543 4.654 25.0212 4.70006 25.2152 4.80142ZM5.86595 5.57207C5.66857 5.76946 5.63923 5.93951 5.76175 6.17647C5.94336 6.52761 6.48502 6.52761 6.66663 6.17647C6.80666 5.90564 6.72135 5.59766 6.47035 5.46787C6.23339 5.34535 6.06334 5.37469 5.86595 5.57207ZM11.8963 9.64183C12.4481 9.91683 12.6942 10.5762 12.447 11.1175C12.0358 12.0176 10.8229 12.0633 10.3669 11.1958C10.2388 10.952 10.2182 10.8592 10.2358 10.6071C10.2946 9.76546 11.1484 9.26917 11.8963 9.64183ZM9.25539 11.2889C9.44618 11.8683 9.89044 12.3968 10.3927 12.6422L10.6932 12.789L10.6631 14.2484C10.636 15.5536 10.6737 16.8002 10.7863 18.3328L10.8202 18.7945H7.22861H3.63699L3.58148 18.623C3.46609 18.2665 3.26168 17.3439 3.17188 16.7742C3.10218 16.3317 3.07907 15.877 3.08013 14.9691C3.08187 13.5275 3.18444 12.7756 3.55705 11.4736L3.6363 11.1966H6.43062C9.04518 11.1966 9.22695 11.2026 9.25539 11.2889ZM19.113 11.2626C19.2222 11.5993 19.3322 14.9934 19.2752 16.269L19.2359 17.1467L19.0617 17.175C18.7422 17.2269 18.303 17.4858 18.0053 17.798C17.7423 18.0736 17.4545 18.5587 17.4532 18.7285C17.4524 18.8251 11.9192 18.8251 11.8879 18.7285C11.7788 18.3922 11.6687 14.998 11.7256 13.7247L11.7647 12.8495L12.0223 12.7835C12.3475 12.7002 12.8433 12.3821 13.065 12.1145C13.2184 11.9295 13.4339 11.5335 13.5145 11.2889C13.543 11.2026 13.7237 11.1966 16.3183 11.1966C18.4904 11.1966 19.0963 11.2109 19.113 11.2626ZM27.4194 11.3681C27.5355 11.7267 27.7394 12.6483 27.8283 13.2168C27.9593 14.053 27.9596 15.9022 27.8291 16.7367C27.732 17.3575 27.5881 18.0247 27.445 18.5174L27.3646 18.7945H24.5573H21.75L21.5988 18.4476C21.4073 18.0078 21.03 17.5934 20.6241 17.3771L20.3075 17.2084L20.3378 15.7458C20.3649 14.4373 20.3274 13.1921 20.2146 11.6583L20.1807 11.1966H23.7723H27.3639L27.4194 11.3681ZM20.0942 18.3064C20.2817 18.4014 20.4351 18.5304 20.539 18.6803C20.6823 18.887 20.6976 18.9489 20.6976 19.3221C20.6976 19.6953 20.6823 19.7572 20.539 19.9639C20.3535 20.2314 19.9075 20.483 19.6197 20.4825C18.9527 20.4815 18.4345 19.9742 18.4345 19.3221C18.4345 18.4484 19.3135 17.9105 20.0942 18.3064ZM11.0869 20.7335C11.5154 23.3585 12.2154 25.4896 13.093 26.8408C13.2916 27.1465 13.3173 27.2128 13.2423 27.2253C13.0998 27.2492 11.7827 26.9007 11.2003 26.685C9.99687 26.2394 8.27643 25.2736 8.34993 25.0851C8.47782 24.757 8.54605 24.3289 8.52003 24.0179C8.3915 22.482 6.88169 21.5727 5.41156 22.1458C5.34075 22.1734 5.25533 22.0801 5.01668 21.7145C4.72849 21.2729 4.05091 19.9976 4.05091 19.8967C4.05091 19.8697 5.51957 19.8497 7.49675 19.8497H10.9426L11.0869 20.7335ZM17.4532 19.9157C17.4535 19.952 17.512 20.1068 17.5832 20.2598C17.7432 20.6034 18.1687 21.0614 18.483 21.2281C18.6128 21.2969 18.719 21.3805 18.719 21.4137C18.719 21.5354 18.3984 22.8816 18.2392 23.4285C17.6458 25.4663 16.7874 26.9333 15.9641 27.3167C15.6125 27.4803 15.3888 27.4805 15.0386 27.3175C13.8796 26.7779 12.7659 24.2611 12.1776 20.8522C12.0899 20.3444 12.0182 19.9111 12.0182 19.8893C12.0181 19.8675 13.2409 19.8497 14.7354 19.8497C16.8738 19.8497 17.4528 19.8637 17.4532 19.9157ZM26.95 19.8842C26.95 19.9547 26.3256 21.1578 26.1046 21.5129C25.1224 23.0916 23.5966 24.6175 22.0178 25.5997C21.4646 25.9439 20.5003 26.4155 19.851 26.6596C19.2754 26.8759 17.969 27.2365 17.7609 27.2365C17.6534 27.2365 17.6532 27.2341 17.7483 27.0914C18.5949 25.8207 19.2211 24.1665 19.6924 21.9552L19.7778 21.5544L20.1058 21.4633C20.8119 21.2669 21.3205 20.8354 21.5988 20.1966L21.75 19.8497H24.35C25.78 19.8497 26.95 19.8652 26.95 19.8842ZM6.85368 23.1629C7.73682 23.6243 7.64876 24.9043 6.70921 25.2631C5.95634 25.5506 5.11408 24.9219 5.17054 24.1144C5.21328 23.5032 5.72328 23.0155 6.31972 23.0155C6.49283 23.0155 6.65967 23.0615 6.85368 23.1629Z" fill="white"/>
</svg>
