<svg width="35" height="35" viewBox="0 0 35 35" fill="none" xmlns="http://www.w3.org/2000/svg">
<circle cx="17.5" cy="17.5" r="17.5" fill="#8E2424"/>
<path fill-rule="evenodd" clip-rule="evenodd" d="M16.2356 2.9661C14.4242 3.14265 12.9606 3.50773 11.5349 4.13867C10.4863 4.60268 9.22966 5.33166 8.93184 5.64867C8.63553 5.96406 8.83021 6.47978 9.27152 6.54866C9.43979 6.57491 9.54287 6.52807 10.0799 6.18129C10.8011 5.71554 11.9199 5.15427 12.7101 4.86166C13.2746 4.6526 14.6665 4.27672 14.8761 4.27672C14.9872 4.27672 14.9874 4.27963 14.8868 4.43061C13.9805 5.79086 13.3439 7.47361 12.8256 9.87912L12.7337 10.3053L12.3593 10.3977C11.5405 10.5997 10.92 11.1853 10.6473 12.0131C10.6172 12.1046 10.4348 12.111 7.87122 12.111C6.36213 12.111 5.12741 12.0949 5.12741 12.0752C5.12741 11.9751 5.77549 10.7315 6.05653 10.2923C6.45771 9.66547 6.48513 9.4479 6.19542 9.18909C6.03492 9.04567 5.97449 9.02496 5.78881 9.04986C5.50106 9.08848 5.45786 9.13022 5.09081 9.72356C2.13755 14.4977 2.2512 20.5859 5.38063 25.2506L5.61869 25.6055L5.45411 25.9245C5.22696 26.3649 5.14274 26.8916 5.22377 27.3647C5.49418 28.9432 7.19314 29.804 8.60301 29.0769L8.9197 28.9136L9.4159 29.2351C11.6907 30.7093 14.085 31.4664 16.7904 31.567C21.7836 31.7528 26.4932 29.3002 29.2827 25.0616C30.8662 22.6555 31.6875 19.6931 31.5791 16.7788C31.4784 14.0735 30.7213 11.6792 29.2471 9.40448L28.9255 8.90829L29.0889 8.59162C29.3148 8.15346 29.3989 7.62604 29.318 7.15375C29.0473 5.57397 27.3486 4.71449 25.9364 5.4428L25.6173 5.60737L25.2625 5.36932C23.4817 4.17465 21.4803 3.40639 19.2855 3.07478C18.728 2.99056 16.719 2.91899 16.2356 2.9661ZM17.7607 4.19082C18.9885 4.76245 20.2161 7.53802 20.7934 11.0478C20.8567 11.4325 20.9222 11.8294 20.939 11.9296L20.9695 12.112L18.0793 12.0975L15.1891 12.083L15.0868 11.8137C14.8964 11.3119 14.543 10.9338 13.8629 10.5043C13.83 10.4835 14.0063 9.67073 14.2305 8.80941C14.9683 5.97486 16.1964 4.054 17.2709 4.054C17.3786 4.054 17.599 4.11556 17.7607 4.19082ZM20.5255 4.46558C20.9361 4.56944 21.5239 4.74767 21.8317 4.86166C23.108 5.33429 24.9327 6.35851 24.8548 6.55851C24.7191 6.90646 24.6468 7.36052 24.6744 7.69028C24.8107 9.31925 26.412 10.2837 27.9712 9.67582C28.0463 9.6465 28.1369 9.74549 28.39 10.1333C28.6957 10.6016 29.4143 11.9542 29.4143 12.0612C29.4143 12.0898 27.8567 12.111 25.7597 12.111H22.105L21.9519 11.1737C21.5063 8.44383 20.7669 6.16562 19.877 4.78035C19.7485 4.5803 19.6243 4.38517 19.601 4.34667C19.5344 4.23671 19.7101 4.25932 20.5255 4.46558ZM27.5743 6.4476C28.487 6.92437 28.4338 8.21479 27.4837 8.64875C26.6693 9.02071 25.7026 8.3149 25.7894 7.41177C25.8484 6.79768 26.3992 6.29125 27.008 6.29125C27.1916 6.29125 27.3686 6.3401 27.5743 6.4476ZM7.05246 7.26494C6.84311 7.47428 6.81199 7.65464 6.94193 7.90595C7.13455 8.27836 7.70904 8.27836 7.90166 7.90595C8.05018 7.61871 7.95969 7.29208 7.69349 7.15442C7.44217 7.02448 7.26181 7.05559 7.05246 7.26494ZM13.4483 11.5812C14.0335 11.8729 14.2945 12.5722 14.0324 13.1462C13.5963 14.101 12.3098 14.1494 11.8262 13.2293C11.6904 12.9708 11.6684 12.8724 11.6871 12.6049C11.7495 11.7123 12.655 11.186 13.4483 11.5812ZM10.6473 13.3281C10.8497 13.9425 11.3209 14.5031 11.8536 14.7634L12.1723 14.9191L12.1403 16.4669C12.1116 17.8511 12.1515 19.1733 12.271 20.7986L12.307 21.2883H8.4977H4.6884L4.62953 21.1064C4.50714 20.7284 4.29035 19.7499 4.19511 19.1457C4.12118 18.6763 4.09667 18.1941 4.09779 17.2313C4.09964 15.7023 4.20842 14.9048 4.60362 13.524L4.68767 13.2302H7.65135C10.4244 13.2302 10.6171 13.2365 10.6473 13.3281ZM21.1024 13.3001C21.2182 13.6573 21.3348 17.257 21.2744 18.6099L21.2327 19.5407L21.048 19.5707C20.709 19.6257 20.2433 19.9004 19.9275 20.2314C19.6486 20.5238 19.3434 21.0383 19.342 21.2183C19.3411 21.3207 13.4725 21.3207 13.4394 21.2183C13.3236 20.8617 13.2069 17.2619 13.2673 15.9114L13.3087 14.9832L13.5819 14.9132C13.9268 14.8248 14.4526 14.4875 14.6878 14.2037C14.8505 14.0075 15.0791 13.5875 15.1646 13.3281C15.1947 13.2365 15.3865 13.2302 18.1383 13.2302C20.442 13.2302 21.0846 13.2453 21.1024 13.3001ZM29.9122 13.412C30.0353 13.7923 30.2516 14.7698 30.3459 15.3728C30.4847 16.2596 30.4851 18.2208 30.3467 19.1059C30.2437 19.7643 30.0911 20.472 29.9394 20.9945L29.8541 21.2883H26.8766H23.8991L23.7389 20.9204C23.5357 20.4539 23.1355 20.0145 22.705 19.7851L22.3693 19.6062L22.4014 18.055C22.4301 16.6672 22.3903 15.3466 22.2707 13.7198L22.2347 13.2302H26.044H29.8533L29.9122 13.412ZM22.143 20.7707C22.3419 20.8714 22.5046 21.0083 22.6148 21.1672C22.7668 21.3864 22.783 21.4521 22.783 21.8479C22.783 22.2437 22.7668 22.3093 22.6148 22.5286C22.4181 22.8123 21.945 23.0791 21.6398 23.0786C20.9323 23.0776 20.3828 22.5395 20.3828 21.8479C20.3828 20.9213 21.315 20.3508 22.143 20.7707ZM12.5898 23.3448C13.0443 26.1288 13.7868 28.3891 14.7176 29.8221C14.9281 30.1462 14.9554 30.2166 14.8758 30.2299C14.7247 30.2552 13.3278 29.8856 12.7101 29.6568C11.4337 29.1842 9.60902 28.16 9.68697 27.96C9.82262 27.612 9.89498 27.1579 9.86739 26.8282C9.73107 25.1992 8.12975 24.2348 6.57052 24.8426C6.49542 24.872 6.40482 24.773 6.15171 24.3852C5.84606 23.9169 5.12741 22.5643 5.12741 22.4573C5.12741 22.4287 6.68507 22.4075 8.78209 22.4075H12.4368L12.5898 23.3448ZM19.342 22.4774C19.3423 22.5159 19.4043 22.6801 19.4799 22.8424C19.6495 23.2068 20.1009 23.6925 20.4342 23.8693C20.5718 23.9424 20.6845 24.031 20.6845 24.0662C20.6845 24.1953 20.3445 25.623 20.1756 26.2031C19.5463 28.3643 18.6358 29.9202 17.7626 30.3267C17.3897 30.5003 17.1525 30.5006 16.781 30.3276C15.5518 29.7553 14.3705 27.0861 13.7466 23.4707C13.6536 22.9321 13.5776 22.4726 13.5775 22.4494C13.5775 22.4263 14.8744 22.4075 16.4594 22.4075C18.7274 22.4075 19.3415 22.4224 19.342 22.4774ZM29.4143 22.444C29.4143 22.5188 28.752 23.7948 28.5177 24.1714C27.476 25.8458 25.8576 27.464 24.1832 28.5058C23.5965 28.8708 22.5737 29.371 21.885 29.6298C21.2746 29.8593 19.889 30.2417 19.6683 30.2417C19.5543 30.2417 19.5541 30.2392 19.6549 30.0879C20.5529 28.7401 21.217 26.9858 21.7169 24.6405L21.8075 24.2155L22.1553 24.1188C22.9043 23.9105 23.4437 23.4529 23.7389 22.7753L23.8991 22.4075H26.6568C28.1734 22.4075 29.4143 22.4239 29.4143 22.444ZM8.10004 25.9214C9.03671 26.4107 8.94331 27.7682 7.94682 28.1488C7.14832 28.4537 6.25502 27.7869 6.3149 26.9305C6.36022 26.2822 6.90114 25.765 7.53372 25.765C7.71732 25.765 7.89427 25.8139 8.10004 25.9214Z" fill="white"/>
</svg>
